<svg viewBox="0 0 24.80 24.80" fill="none" xmlns="http://www.w3.org/2000/svg" stroke="#000000"
    transform="matrix(1, 0, 0, 1, 0, 0)rotate(0)">
    <g id="SVGRepo_bgCarrier" stroke-width="0">
        <path transform="translate(-2.4, -2.4), scale(0.8999999999999999)"
            d="M16,26.632758978754282C18.636019436125938,27.133597281024432,21.564412367589334,28.20997090424717,23.850644339020526,26.805484932277217C26.158556291199524,25.38768043917145,26.308281523091434,22.19062626003545,27.320560310066263,19.678273017133026C28.42887557001095,16.927568889664716,30.62476603310274,14.34514169291293,30.042840562874332,11.437204510063738C29.442958670743653,8.439537371074211,26.897631525976195,6.187611278275003,24.29871115157208,4.57780400776368C21.829593361060752,3.0483982552594915,18.90271737733337,2.6395949579877733,16,2.738874596077949C13.182365553623946,2.835244201431539,10.1867585457632,3.2318882390071515,8.103725060479213,5.131709934173976C6.107603962105604,6.952263562169737,6.268382960850303,10.002546611329155,5.279307537543131,12.516635861692103C4.197732119164025,15.265846962005977,0.925137928097501,17.80033426969098,2.0440410977017525,20.534565927173666C3.183138533245417,23.318145734461577,7.297870696860507,22.97986198673089,10.053882644984789,24.184128424442807C12.067346646734688,25.063931257844455,13.841326209306423,26.22261537295638,16,26.632758978754282"
            fill="#4bbe7d" strokewidth="0"></path>
    </g>
    <g id="SVGRepo_tracerCarrier" stroke-linecap="round" stroke-linejoin="round"></g>
    <g id="SVGRepo_iconCarrier">
        <path d="M22 22L2 22" stroke="#1C274C" stroke-width="1.056" stroke-linecap="round"></path>
        <path
            d="M2 11L6.06296 7.74968M22 11L13.8741 4.49931C12.7784 3.62279 11.2216 3.62279 10.1259 4.49931L9.34398 5.12486"
            stroke="#1C274C" stroke-width="1.056" stroke-linecap="round"></path>
        <path d="M15.5 5.5V3.5C15.5 3.22386 15.7239 3 16 3H18.5C18.7761 3 19 3.22386 19 3.5V8.5"
            stroke="#1C274C" stroke-width="1.056" stroke-linecap="round"></path>
        <path d="M4 22V9.5" stroke="#1C274C" stroke-width="1.056" stroke-linecap="round"></path>
        <path d="M20 9.5V13.5M20 22V17.5" stroke="#1C274C" stroke-width="1.056"
            stroke-linecap="round"></path>
        <path
            d="M15 22V17C15 15.5858 15 14.8787 14.5607 14.4393C14.1213 14 13.4142 14 12 14C10.5858 14 9.87868 14 9.43934 14.4393M9 22V17"
            stroke="#1C274C" stroke-width="1.056" stroke-linecap="round" stroke-linejoin="round"></path>
        <path
            d="M14 9.5C14 10.6046 13.1046 11.5 12 11.5C10.8954 11.5 10 10.6046 10 9.5C10 8.39543 10.8954 7.5 12 7.5C13.1046 7.5 14 8.39543 14 9.5Z"
            stroke="#1C274C" stroke-width="1.056"></path>
    </g>
</svg>